<svg width="570" height="570" viewBox="0 0 570 570" fill="none" xmlns="http://www.w3.org/2000/svg">
<g clip-path="url(#clip0_11_202)">
<path d="M320.625 570H391.875V463.125H320.625V570Z" fill="#FAFAFA"/>
<path d="M320.625 391.875H391.875V0H320.625V391.875Z" fill="#FAFAFA"/>
<path d="M320.625 570H570V498.75H320.625V570Z" fill="#FAFAFA"/>
<path d="M320.625 391.875H570V320.625H320.625V391.875Z" fill="#FAFAFA"/>
<path d="M320.625 71.25H570V0H320.625V71.25Z" fill="#FAFAFA"/>
<path d="M498.75 570H570V356.25H498.75V570Z" fill="#FAFAFA"/>
<path d="M498.75 249.375H570V0H498.75V249.375Z" fill="#FAFAFA"/>
<path d="M0 0H71.25V106.875H0V0Z" fill="#FAFAFA"/>
<path d="M0 178.125H71.25V570H0V178.125Z" fill="#FAFAFA"/>
<path d="M0 0H249.375V71.25H0V0Z" fill="#FAFAFA"/>
<path d="M0 178.125H249.375V249.375H0V178.125Z" fill="#FAFAFA"/>
<path d="M0 498.75H249.375V570H0V498.75Z" fill="#FAFAFA"/>
<path d="M178.125 0H249.375V213.75H178.125V0Z" fill="#FAFAFA"/>
<path d="M178.125 320.625H249.375V570H178.125V320.625Z" fill="#FAFAFA"/>
</g>
<defs>
<clipPath id="clip0_11_202">
<rect width="570" height="570" fill="white"/>
</clipPath>
</defs>
</svg>
