<svg width="27" height="27" viewBox="0 0 27 27" fill="none" xmlns="http://www.w3.org/2000/svg">
<g clip-path="url(#clip0_201_9)">
<path d="M15.1875 27H18.5625V21.9375H15.1875V27Z" fill="#FAFAFA"/>
<path d="M15.1875 18.5625H18.5625V0H15.1875V18.5625Z" fill="#FAFAFA"/>
<path d="M15.1875 27H27V23.625H15.1875V27Z" fill="#FAFAFA"/>
<path d="M15.1875 18.5625H27V15.1875H15.1875V18.5625Z" fill="#FAFAFA"/>
<path d="M15.1875 3.375H27V0H15.1875V3.375Z" fill="#FAFAFA"/>
<path d="M23.625 27H27V16.875H23.625V27Z" fill="#FAFAFA"/>
<path d="M23.625 11.8125H27V0H23.625V11.8125Z" fill="#FAFAFA"/>
<path d="M0 0H3.375V5.0625H0V0Z" fill="#FAFAFA"/>
<path d="M0 8.4375H3.375V27H0V8.4375Z" fill="#FAFAFA"/>
<path d="M0 0H11.8125V3.375H0V0Z" fill="#FAFAFA"/>
<path d="M0 8.4375H11.8125V11.8125H0V8.4375Z" fill="#FAFAFA"/>
<path d="M0 23.625H11.8125V27H0V23.625Z" fill="#FAFAFA"/>
<path d="M8.4375 0H11.8125V10.125H8.4375V0Z" fill="#FAFAFA"/>
<path d="M8.4375 15.1875H11.8125V27H8.4375V15.1875Z" fill="#FAFAFA"/>
</g>
<defs>
<clipPath id="clip0_201_9">
<rect width="27" height="27" fill="white"/>
</clipPath>
</defs>
</svg>
